<svg width="1024" height="1024" viewBox="0 0 1024 1024" fill="none" xmlns="http://www.w3.org/2000/svg">
  <defs>
    <linearGradient id="bg" x1="176" y1="128" x2="864" y2="928" gradientUnits="userSpaceOnUse">
      <stop offset="0" stop-color="#0B1F3A"/>
      <stop offset="0.52" stop-color="#123C6A"/>
      <stop offset="1" stop-color="#1F77B4"/>
    </linearGradient>
    <linearGradient id="iceLeft" x1="308" y1="220" x2="540" y2="766" gradientUnits="userSpaceOnUse">
      <stop offset="0" stop-color="#FBFEFF"/>
      <stop offset="0.35" stop-color="#DBF4FF"/>
      <stop offset="1" stop-color="#9FDBF6"/>
    </linearGradient>
    <linearGradient id="iceRight" x1="530" y1="244" x2="720" y2="764" gradientUnits="userSpaceOnUse">
      <stop offset="0" stop-color="#6FC7EA"/>
      <stop offset="1" stop-color="#2C95CC"/>
    </linearGradient>
    <filter id="softShadow" x="180" y="160" width="664" height="700" filterUnits="userSpaceOnUse" color-interpolation-filters="sRGB">
      <feFlood flood-opacity="0" result="BackgroundImageFix"/>
      <feColorMatrix in="SourceAlpha" type="matrix" values="0 0 0 0 0 0 0 0 0 0 0 0 0 0 0 0 0 0 127 0" result="hardAlpha"/>
      <feOffset dy="34"/>
      <feGaussianBlur stdDeviation="32"/>
      <feColorMatrix type="matrix" values="0 0 0 0 0.02 0 0 0 0 0.14 0 0 0 0 0.25 0 0 0 0.28 0"/>
      <feBlend mode="normal" in2="BackgroundImageFix" result="effect1_dropShadow_1_2"/>
      <feBlend mode="normal" in="SourceGraphic" in2="effect1_dropShadow_1_2" result="shape"/>
    </filter>
  </defs>

  <rect width="1024" height="1024" rx="220" fill="url(#bg)"/>

  <circle cx="734" cy="238" r="98" fill="#BDEFFF" fill-opacity="0.10"/>
  <circle cx="268" cy="246" r="56" fill="#D6F7FF" fill-opacity="0.14"/>

  <g filter="url(#softShadow)">
    <path d="M512 204L760 764H264L512 204Z" fill="url(#iceLeft)"/>
    <path d="M512 204L760 764H512V204Z" fill="url(#iceRight)"/>
    <path d="M512 204L620 430L512 520L416 408L512 204Z" fill="#FFFFFF" fill-opacity="0.96"/>
    <path d="M512 520L648 656L586 764H264L512 520Z" fill="#E7F9FF" fill-opacity="0.9"/>
    <path d="M512 520L760 764H586L512 520Z" fill="#59B7E4" fill-opacity="0.96"/>
    <path d="M446 604L514 564L552 638L512 684L446 604Z" fill="#FFFFFF" fill-opacity="0.8"/>
    <path d="M512 264L704 704H646L512 432L378 704H320L512 264Z" fill="#D4F4FF" fill-opacity="0.42"/>
  </g>
</svg>
